<?xml version="1.0" encoding="UTF-8" standalone="no"?>
<!DOCTYPE svg PUBLIC "-//W3C//DTD SVG 1.1//EN" "http://www.w3.org/Graphics/SVG/1.1/DTD/svg11.dtd">
<svg version="1.1" xmlns="http://www.w3.org/2000/svg" xmlns:xlink="http://www.w3.org/1999/xlink" preserveAspectRatio="xMidYMid meet" viewBox="336.04197645556724 187.0794316973065 79.23053590676 239.39807476975264" width="79.23" height="239.4"><defs><path d="M339.04 233.17L339.04 385.57L391.59 385.57L391.59 233.17L339.04 233.17Z" id="k1MXVvf4c"></path><path d="M339.04 233.17L339.04 385.57L391.59 385.57L391.59 233.17L339.04 233.17Z" id="c5drwABUf7"></path><path d="M361.6 211.54L361.6 402.06L400.65 402.06L400.65 211.54L361.6 211.54Z" id="e2jYM4qOHC"></path><path d="M361.6 211.54L361.6 402.06L400.65 402.06L400.65 211.54L361.6 211.54Z" id="lNVI7gP5H"></path><path d="M387.16 420.04L383.27 426.48L377.61 426.37L374.45 419.8L374.77 403.23L387.49 403.49L387.16 420.04Z" id="a3dbP3nlS0"></path><path d="M381.1 206.42C399.95 206.29 415.26 207.88 415.27 209.95C415.28 212.01 399.99 213.78 381.15 213.9C362.31 214.02 346.99 212.44 346.98 210.36C346.97 208.3 362.26 206.53 381.1 206.42Z" id="a9iGumKxv9"></path><path d="M374.77 193.59L378.54 187.08L384.19 187.08L387.49 193.59L387.49 210.16L374.77 210.16L374.77 193.59Z" id="a28Gsgp65"></path><path d="M381.12 400.91C399.97 400.8 415.26 401.22 415.27 401.86C415.27 402.49 399.98 403.1 381.14 403.21C362.29 403.33 346.98 402.91 346.98 402.28C346.98 401.64 362.27 401.04 381.12 400.91Z" id="mK0rH9o30"></path><path d="M358.86 233.17L358.86 385.57L403.48 385.57L403.48 233.17L358.86 233.17Z" id="b3tetyxrad"></path><path d="M361.6 224.17L336.04 224.17L336.04 233.17L361.6 233.17L361.6 224.17Z" id="cnxxF0c"></path><path d="M361.6 385.57L336.04 385.57L336.04 394.57L361.6 394.57L361.6 385.57Z" id="d36mj32tDo"></path></defs><g><g><g><use xlink:href="#k1MXVvf4c" opacity="1" fill="#f3e3c8" fill-opacity="1"></use><g><use xlink:href="#k1MXVvf4c" opacity="1" fill-opacity="0" stroke="#000000" stroke-width="1" stroke-opacity="0"></use></g></g><g><use xlink:href="#c5drwABUf7" opacity="1" fill="#000000" fill-opacity="0"></use><g><use xlink:href="#c5drwABUf7" opacity="1" fill-opacity="0" stroke="#cbb99c" stroke-width="0" stroke-opacity="1"></use></g></g><g><use xlink:href="#e2jYM4qOHC" opacity="1" fill="#a58b64" fill-opacity="1"></use><g><use xlink:href="#e2jYM4qOHC" opacity="1" fill-opacity="0" stroke="#000000" stroke-width="1" stroke-opacity="0"></use></g></g><g><use xlink:href="#lNVI7gP5H" opacity="1" fill="#000000" fill-opacity="0"></use><g><use xlink:href="#lNVI7gP5H" opacity="1" fill-opacity="0" stroke="#a58b64" stroke-width="1" stroke-opacity="1"></use></g></g><g><use xlink:href="#a3dbP3nlS0" opacity="1" fill="#a58b64" fill-opacity="1"></use><g><use xlink:href="#a3dbP3nlS0" opacity="1" fill-opacity="0" stroke="#000000" stroke-width="1" stroke-opacity="0"></use></g></g><g><use xlink:href="#a9iGumKxv9" opacity="1" fill="#a58b64" fill-opacity="1"></use><g><use xlink:href="#a9iGumKxv9" opacity="1" fill-opacity="0" stroke="#000000" stroke-width="1" stroke-opacity="0"></use></g></g><g><use xlink:href="#a28Gsgp65" opacity="1" fill="#a58b64" fill-opacity="1"></use><g><use xlink:href="#a28Gsgp65" opacity="1" fill-opacity="0" stroke="#000000" stroke-width="1" stroke-opacity="0"></use></g></g><g><use xlink:href="#mK0rH9o30" opacity="1" fill="#a58b64" fill-opacity="1"></use><g><use xlink:href="#mK0rH9o30" opacity="1" fill-opacity="0" stroke="#000000" stroke-width="1" stroke-opacity="0"></use></g></g><g><use xlink:href="#b3tetyxrad" opacity="1" fill="#f3e3c8" fill-opacity="1"></use><g><use xlink:href="#b3tetyxrad" opacity="1" fill-opacity="0" stroke="#000000" stroke-width="1" stroke-opacity="0"></use></g></g><g><use xlink:href="#cnxxF0c" opacity="1" fill="#3399cc" fill-opacity="1"></use></g><g><use xlink:href="#d36mj32tDo" opacity="1" fill="#3399cc" fill-opacity="1"></use></g></g></g></svg>