<?xml version="1.0" encoding="UTF-8" standalone="no"?>
<!DOCTYPE svg PUBLIC "-//W3C//DTD SVG 1.1//EN" "http://www.w3.org/Graphics/SVG/1.1/DTD/svg11.dtd">
<svg version="1.1" xmlns="http://www.w3.org/2000/svg" xmlns:xlink="http://www.w3.org/1999/xlink" preserveAspectRatio="xMidYMid meet" viewBox="269.8610324818111 175.9998569282024 76.49927890989534 258.1637431643042" width="72.5" height="254.16"><defs><path d="M286.38 202.97L327.84 202.97L327.84 405.24L286.38 405.24L286.38 202.97Z" id="a1vdp2azqs"></path><path d="M343.36 201.72C343.37 199.53 327.14 197.65 307.14 197.53C287.13 197.4 270.87 199.08 270.86 201.28C270.85 203.47 287.08 205.35 307.09 205.47C327.09 205.6 343.35 203.92 343.36 201.72Z" id="g3gkdFBZpS"></path><path d="M313.86 201.5L313.86 183.91L309.86 177L303.86 177L300.36 183.91L300.36 201.5L313.86 201.5Z" id="a7ggHMXKr"></path><path d="M343.36 405.46C343.36 404.79 327.12 404.14 307.12 404.02C287.11 403.9 270.87 404.34 270.86 405.02C270.86 405.69 287.1 406.34 307.1 406.46C327.11 406.59 343.36 406.14 343.36 405.46Z" id="aQa501Oec"></path><path d="M300.36 406.75L300.71 424.33L304.84 431.16L310.84 431.05L314.2 424.07L313.86 406.48L300.36 406.75Z" id="a70y726M73"></path></defs><g><g><g><filter id="shadow1798878" x="277.38" y="193.97" width="60.45" height="221.27" filterUnits="userSpaceOnUse" primitiveUnits="userSpaceOnUse"><feFlood></feFlood><feComposite in2="SourceAlpha" operator="in"></feComposite><feGaussianBlur stdDeviation="1"></feGaussianBlur><feOffset dx="1" dy="1" result="afterOffset"></feOffset><feFlood flood-color="#000000" flood-opacity="0.5"></feFlood><feComposite in2="afterOffset" operator="in"></feComposite><feMorphology operator="dilate" radius="1"></feMorphology><feComposite in2="SourceAlpha" operator="out"></feComposite></filter><path d="M286.38 202.97L327.84 202.97L327.84 405.24L286.38 405.24L286.38 202.97Z" id="ai4qSOPjJ" fill="white" fill-opacity="1" filter="url(#shadow1798878)"></path></g><use xlink:href="#a1vdp2azqs" opacity="1" fill="#a58b64" fill-opacity="1"></use><g><use xlink:href="#a1vdp2azqs" opacity="1" fill-opacity="0" stroke="#63625f" stroke-width="1" stroke-opacity="1"></use></g></g><g><g><filter id="shadow12426071" x="261.86" y="188.52" width="91.5" height="26.96" filterUnits="userSpaceOnUse" primitiveUnits="userSpaceOnUse"><feFlood></feFlood><feComposite in2="SourceAlpha" operator="in"></feComposite><feGaussianBlur stdDeviation="1"></feGaussianBlur><feOffset dx="1" dy="1" result="afterOffset"></feOffset><feFlood flood-color="#000000" flood-opacity="0.5"></feFlood><feComposite in2="afterOffset" operator="in"></feComposite><feMorphology operator="dilate" radius="1"></feMorphology><feComposite in2="SourceAlpha" operator="out"></feComposite></filter><path d="M343.36 201.72C343.37 199.53 327.14 197.65 307.14 197.53C287.13 197.4 270.87 199.08 270.86 201.28C270.85 203.47 287.08 205.35 307.09 205.47C327.09 205.6 343.35 203.92 343.36 201.72Z" id="bjDcgx6hL" fill="white" fill-opacity="1" filter="url(#shadow12426071)"></path></g><use xlink:href="#g3gkdFBZpS" opacity="1" fill="#a58b64" fill-opacity="1"></use><g><use xlink:href="#g3gkdFBZpS" opacity="1" fill-opacity="0" stroke="#63625f" stroke-width="1" stroke-opacity="1"></use></g></g><g><use xlink:href="#a7ggHMXKr" opacity="1" fill="#a58b64" fill-opacity="1"></use><g><use xlink:href="#a7ggHMXKr" opacity="1" fill-opacity="0" stroke="#63625f" stroke-width="1" stroke-opacity="1"></use></g></g><g><g><filter id="shadow7699083" x="261.86" y="395" width="91.5" height="21.48" filterUnits="userSpaceOnUse" primitiveUnits="userSpaceOnUse"><feFlood></feFlood><feComposite in2="SourceAlpha" operator="in"></feComposite><feGaussianBlur stdDeviation="1"></feGaussianBlur><feOffset dx="1" dy="1" result="afterOffset"></feOffset><feFlood flood-color="#000000" flood-opacity="0.5"></feFlood><feComposite in2="afterOffset" operator="in"></feComposite><feMorphology operator="dilate" radius="1"></feMorphology><feComposite in2="SourceAlpha" operator="out"></feComposite></filter><path d="M343.36 405.46C343.36 404.79 327.12 404.14 307.12 404.02C287.11 403.9 270.87 404.34 270.86 405.02C270.86 405.69 287.1 406.34 307.1 406.46C327.11 406.59 343.36 406.14 343.36 405.46Z" id="a12riAUZR3" fill="white" fill-opacity="1" filter="url(#shadow7699083)"></path></g><use xlink:href="#aQa501Oec" opacity="1" fill="#a58b64" fill-opacity="1"></use><g><use xlink:href="#aQa501Oec" opacity="1" fill-opacity="0" stroke="#63625f" stroke-width="1" stroke-opacity="1"></use></g></g><g><use xlink:href="#a70y726M73" opacity="1" fill="#a58b64" fill-opacity="1"></use><g><use xlink:href="#a70y726M73" opacity="1" fill-opacity="0" stroke="#63625f" stroke-width="1" stroke-opacity="1"></use></g></g></g></svg>