<?xml version="1.0" encoding="UTF-8" standalone="no"?>
<!DOCTYPE svg PUBLIC "-//W3C//DTD SVG 1.1//EN" "http://www.w3.org/Graphics/SVG/1.1/DTD/svg11.dtd">
<svg version="1.1" xmlns="http://www.w3.org/2000/svg" xmlns:xlink="http://www.w3.org/1999/xlink" preserveAspectRatio="xMidYMid meet" viewBox="67.41071559090133 186.0794316973065 84.73053590676005 243.39807476975264" width="79.23" height="239.4"><defs><path d="M144.64 233.17L144.64 385.57L92.09 385.57L92.09 233.17L144.64 233.17Z" id="bYYPsvve"></path><path d="M144.64 233.17L144.64 385.57L92.09 385.57L92.09 233.17L144.64 233.17Z" id="c381Z6OAvQ"></path><path d="M122.08 211.54L122.08 402.06L83.03 402.06L83.03 211.54L122.08 211.54Z" id="fNOLGJdgS"></path><path d="M122.08 211.54L122.08 402.06L83.03 402.06L83.03 211.54L122.08 211.54Z" id="ae15fdyvl"></path><path d="M96.53 420.04L100.42 426.48L106.07 426.37L109.23 419.8L108.91 403.23L96.2 403.49L96.53 420.04Z" id="eqAGl6oP8"></path><path d="M102.58 206.42C83.74 206.29 68.42 207.88 68.41 209.95C68.4 212.01 83.69 213.78 102.54 213.9C121.37 214.02 136.69 212.44 136.7 210.36C136.71 208.3 121.42 206.53 102.58 206.42Z" id="lxZy1Ahcb"></path><path d="M108.91 193.59L105.15 187.08L99.49 187.08L96.2 193.59L96.2 210.16L108.91 210.16L108.91 193.59Z" id="aq3bwGWhy"></path><path d="M102.56 400.91C83.72 400.8 68.42 401.22 68.41 401.86C68.41 402.49 83.71 403.1 102.55 403.21C121.39 403.33 136.7 402.91 136.7 402.28C136.7 401.64 121.41 401.04 102.56 400.91Z" id="bif1CDBYi"></path><path d="M124.82 233.17L124.82 385.57L80.2 385.57L80.2 233.17L124.82 233.17Z" id="a5Sax7POdz"></path><path d="M122.08 224.17L147.64 224.17L147.64 233.17L122.08 233.17L122.08 224.17Z" id="c4PrI1wM3h"></path><path d="M122.08 385.57L147.64 385.57L147.64 394.57L122.08 394.57L122.08 385.57Z" id="a2DyQlmWdq"></path></defs><g><g><use xlink:href="#bYYPsvve" opacity="1" fill="#f3e3c8" fill-opacity="1"></use><g><use xlink:href="#bYYPsvve" opacity="1" fill-opacity="0" stroke="#000000" stroke-width="1" stroke-opacity="0"></use></g></g><g><use xlink:href="#c381Z6OAvQ" opacity="1" fill="#000000" fill-opacity="0"></use><g><use xlink:href="#c381Z6OAvQ" opacity="1" fill-opacity="0" stroke="#cbb99c" stroke-width="0" stroke-opacity="1"></use></g></g><g><use xlink:href="#fNOLGJdgS" opacity="1" fill="#a58b64" fill-opacity="1"></use><g><use xlink:href="#fNOLGJdgS" opacity="1" fill-opacity="0" stroke="#000000" stroke-width="1" stroke-opacity="0"></use></g></g><g><use xlink:href="#ae15fdyvl" opacity="1" fill="#000000" fill-opacity="0"></use><g><use xlink:href="#ae15fdyvl" opacity="1" fill-opacity="0" stroke="#a58b64" stroke-width="1" stroke-opacity="1"></use></g></g><g><use xlink:href="#eqAGl6oP8" opacity="1" fill="#a58b64" fill-opacity="1"></use><g><use xlink:href="#eqAGl6oP8" opacity="1" fill-opacity="0" stroke="#000000" stroke-width="1" stroke-opacity="0"></use></g></g><g><use xlink:href="#lxZy1Ahcb" opacity="1" fill="#a58b64" fill-opacity="1"></use><g><use xlink:href="#lxZy1Ahcb" opacity="1" fill-opacity="0" stroke="#000000" stroke-width="1" stroke-opacity="0"></use></g></g><g><use xlink:href="#aq3bwGWhy" opacity="1" fill="#a58b64" fill-opacity="1"></use><g><use xlink:href="#aq3bwGWhy" opacity="1" fill-opacity="0" stroke="#000000" stroke-width="1" stroke-opacity="0"></use></g></g><g><use xlink:href="#bif1CDBYi" opacity="1" fill="#a58b64" fill-opacity="1"></use><g><use xlink:href="#bif1CDBYi" opacity="1" fill-opacity="0" stroke="#000000" stroke-width="1" stroke-opacity="0"></use></g></g><g><use xlink:href="#a5Sax7POdz" opacity="1" fill="#f3e3c8" fill-opacity="1"></use><g><use xlink:href="#a5Sax7POdz" opacity="1" fill-opacity="0" stroke="#000000" stroke-width="1" stroke-opacity="0"></use></g></g><g><use xlink:href="#c4PrI1wM3h" opacity="1" fill="#3399cc" fill-opacity="1"></use></g><g><use xlink:href="#a2DyQlmWdq" opacity="1" fill="#3399cc" fill-opacity="1"></use></g></g></svg>