<?xml version="1.0" encoding="UTF-8" standalone="no"?>
<!DOCTYPE svg PUBLIC "-//W3C//DTD SVG 1.1//EN" "http://www.w3.org/Graphics/SVG/1.1/DTD/svg11.dtd">
<svg version="1.1" xmlns="http://www.w3.org/2000/svg" xmlns:xlink="http://www.w3.org/1999/xlink" preserveAspectRatio="xMidYMid meet" viewBox="344.1101484418689 33.821227234438595 78.88985155813111 231.17732447843986" width="74.89" height="227.18"><defs><path d="M345.11 222.18L394.89 222.18L394.89 77.82L345.11 77.82L345.11 222.18Z" id="eAOfnWdje"></path><path d="M369.16 238.87L406.15 238.87L406.15 58.39L369.16 58.39L369.16 238.87Z" id="b2XGeL18T"></path><path d="M369.16 238.87L406.15 238.87L406.15 58.39L369.16 58.39L369.16 238.87Z" id="aUvyOuDKN"></path><path d="M369.16 238.87L406.15 238.87L406.15 58.39L369.16 58.39L369.16 238.87Z" id="bbIUav6o3"></path><path d="M369.16 238.87L406.15 238.87L406.15 58.39L369.16 58.39L369.16 238.87Z" id="cDM1WJqY8"></path><path d="M403.97 237.83L405.53 237.85L407.04 237.88L408.48 237.91L409.85 237.95L411.15 237.98L412.38 238.02L413.53 238.06L414.59 238.11L415.58 238.16L416.47 238.2L417.26 238.25L417.97 238.31L418.58 238.36L419.08 238.42L419.48 238.48L419.76 238.54L419.94 238.61L420 238.68L419.94 238.74L419.76 238.81L419.48 238.87L419.08 238.93L418.58 239L417.97 239.06L417.27 239.12L416.48 239.19L415.59 239.24L414.6 239.3L413.54 239.37L412.39 239.42L411.16 239.47L409.86 239.53L408.49 239.58L407.05 239.62L405.54 239.67L403.98 239.71L402.35 239.75L400.68 239.78L398.94 239.82L397.16 239.85L395.34 239.88L393.48 239.91L391.57 239.93L389.63 239.95L387.67 239.96L385.7 239.96L383.76 239.97L381.85 239.97L381.73 239.97L393.68 240.22L393.36 255.9L389.68 262L384.33 261.89L381.33 255.67L381.64 239.97L379.99 239.97L378.16 239.97L376.38 239.96L374.64 239.95L372.97 239.94L371.34 239.92L369.78 239.89L368.27 239.86L366.83 239.83L365.46 239.8L364.15 239.77L362.93 239.73L361.78 239.68L360.71 239.64L359.73 239.6L358.84 239.55L358.04 239.49L357.34 239.44L356.73 239.39L356.23 239.33L355.83 239.26L355.55 239.21L355.37 239.14L355.31 239.07L355.37 239.01L355.55 238.94L355.83 238.88L356.23 238.81L356.73 238.74L357.34 238.68L358.04 238.62L358.83 238.55L359.72 238.5L360.71 238.44L361.77 238.38L362.92 238.33L364.14 238.27L365.45 238.22L366.82 238.16L368.26 238.12L369.77 238.08L371.33 238.03L372.96 237.99L374.63 237.96L376.37 237.92L378.15 237.89L379.97 237.86L381.83 237.83L383.74 237.81L385.68 237.8L387.65 237.78L389.62 237.77L391.55 237.77L393.46 237.77L395.32 237.77L397.15 237.77L398.93 237.78L400.67 237.8L400.67 237.8L402.34 237.81L403.97 237.83Z" id="b4nI3k9Zc"></path><path d="M403.97 237.83L405.53 237.85L407.04 237.88L408.48 237.91L409.85 237.95L411.15 237.98L412.38 238.02L413.53 238.06L414.59 238.11L415.58 238.16L416.47 238.2L417.26 238.25L417.97 238.31L418.58 238.36L419.08 238.42L419.48 238.48L419.76 238.54L419.94 238.61L420 238.68L419.94 238.74L419.76 238.81L419.48 238.87L419.08 238.93L418.58 239L417.97 239.06L417.27 239.12L416.48 239.19L415.59 239.24L414.6 239.3L413.54 239.37L412.39 239.42L411.16 239.47L409.86 239.53L408.49 239.58L407.05 239.62L405.54 239.67L403.98 239.71L402.35 239.75L400.68 239.78L398.94 239.82L397.16 239.85L395.34 239.88L393.48 239.91L391.57 239.93L389.63 239.95L387.67 239.96L385.7 239.96L383.76 239.97L381.85 239.97L381.73 239.97L393.68 240.22L393.36 255.9L389.68 262L384.33 261.89L381.33 255.67L381.64 239.97L379.99 239.97L378.16 239.97L376.38 239.96L374.64 239.95L372.97 239.94L371.34 239.92L369.78 239.89L368.27 239.86L366.83 239.83L365.46 239.8L364.15 239.77L362.93 239.73L361.78 239.68L360.71 239.64L359.73 239.6L358.84 239.55L358.04 239.49L357.34 239.44L356.73 239.39L356.23 239.33L355.83 239.26L355.55 239.21L355.37 239.14L355.31 239.07L355.37 239.01L355.55 238.94L355.83 238.88L356.23 238.81L356.73 238.74L357.34 238.68L358.04 238.62L358.83 238.55L359.72 238.5L360.71 238.44L361.77 238.38L362.92 238.33L364.14 238.27L365.45 238.22L366.82 238.16L368.26 238.12L369.77 238.08L371.33 238.03L372.96 237.99L374.63 237.96L376.37 237.92L378.15 237.89L379.97 237.86L381.83 237.83L383.74 237.81L385.68 237.8L387.65 237.78L389.62 237.77L391.55 237.77L393.46 237.77L395.32 237.77L397.15 237.77L398.93 237.78L400.67 237.8L400.67 237.8L402.34 237.81L403.97 237.83Z" id="cBkkpL0jz"></path><path d="M403.95 53.52L405.53 53.62L407.03 53.72L408.47 53.84L409.85 53.97L411.15 54.1L412.37 54.24L413.52 54.39L414.59 54.55L415.57 54.71L416.47 54.89L417.26 55.07L417.97 55.25L418.58 55.44L419.08 55.64L419.48 55.85L419.76 56.06L419.94 56.27L420 56.49L419.94 56.7L419.77 56.91L419.48 57.12L419.09 57.33L418.59 57.53L417.98 57.73L417.28 57.93L416.49 58.11L415.6 58.29L414.61 58.47L413.55 58.65L412.4 58.81L411.18 58.97L409.87 59.12L408.5 59.26L407.06 59.39L405.56 59.53L403.99 59.64L402.37 59.74L400.68 59.85L398.95 59.93L397.17 60.01L395.35 60.08L393.49 60.13L391.58 60.17L389.64 60.2L387.67 60.22L385.71 60.23L383.77 60.22L381.86 60.2L380 60.17L378.18 60.12L376.4 60.08L374.66 60.01L372.98 59.93L371.36 59.84L369.78 59.74L368.28 59.64L366.84 59.52L365.46 59.39L364.16 59.26L362.94 59.12L361.79 58.97L360.72 58.81L359.74 58.65L358.84 58.47L358.05 58.29L357.35 58.11L356.74 57.91L356.23 57.72L355.83 57.51L355.55 57.3L355.37 57.09L355.31 56.87L355.37 56.66L355.55 56.45L355.83 56.24L356.23 56.03L356.73 55.82L357.33 55.62L358.03 55.43L358.83 55.24L359.72 55.06L360.7 54.88L361.76 54.71L362.91 54.54L364.13 54.39L365.44 54.24L366.81 54.1L368.25 53.97L369.75 53.83L371.32 53.72L372.94 53.62L374.63 53.51L376.35 53.43L378.13 53.35L379.96 53.28L381.64 53.24L381.64 40.99L385.21 34.82L390.56 34.82L393.68 40.99L393.68 53.16L395.3 53.19L397.13 53.23L398.91 53.28L400.65 53.35L400.65 53.35L402.32 53.43L403.95 53.52Z" id="aurDbC7hk"></path><path d="M403.95 53.52L405.53 53.62L407.03 53.72L408.47 53.84L409.85 53.97L411.15 54.1L412.37 54.24L413.52 54.39L414.59 54.55L415.57 54.71L416.47 54.89L417.26 55.07L417.97 55.25L418.58 55.44L419.08 55.64L419.48 55.85L419.76 56.06L419.94 56.27L420 56.49L419.94 56.7L419.77 56.91L419.48 57.12L419.09 57.33L418.59 57.53L417.98 57.73L417.28 57.93L416.49 58.11L415.6 58.29L414.61 58.47L413.55 58.65L412.4 58.81L411.18 58.97L409.87 59.12L408.5 59.26L407.06 59.39L405.56 59.53L403.99 59.64L402.37 59.74L400.68 59.85L398.95 59.93L397.17 60.01L395.35 60.08L393.49 60.13L391.58 60.17L389.64 60.2L387.67 60.22L385.71 60.23L383.77 60.22L381.86 60.2L380 60.17L378.18 60.12L376.4 60.08L374.66 60.01L372.98 59.93L371.36 59.84L369.78 59.74L368.28 59.64L366.84 59.52L365.46 59.39L364.16 59.26L362.94 59.12L361.79 58.97L360.72 58.81L359.74 58.65L358.84 58.47L358.05 58.29L357.35 58.11L356.74 57.91L356.23 57.72L355.83 57.51L355.55 57.3L355.37 57.09L355.31 56.87L355.37 56.66L355.55 56.45L355.83 56.24L356.23 56.03L356.73 55.82L357.33 55.62L358.03 55.43L358.83 55.24L359.72 55.06L360.7 54.88L361.76 54.71L362.91 54.54L364.13 54.39L365.44 54.24L366.81 54.1L368.25 53.97L369.75 53.83L371.32 53.72L372.94 53.62L374.63 53.51L376.35 53.43L378.13 53.35L379.96 53.28L381.64 53.24L381.64 40.99L385.21 34.82L390.56 34.82L393.68 40.99L393.68 53.16L395.3 53.19L397.13 53.23L398.91 53.28L400.65 53.35L400.65 53.35L402.32 53.43L403.95 53.52Z" id="a3cjKVwQCP"></path><path d="M366.53 223.25L408.78 223.25L408.78 78.88L366.53 78.88L366.53 223.25Z" id="a153KLBdYm"></path></defs><g><g><use xlink:href="#eAOfnWdje" opacity="1" fill="#fffbeb" fill-opacity="1"></use><g><use xlink:href="#eAOfnWdje" opacity="1" fill-opacity="0" stroke="#000000" stroke-width="1" stroke-opacity="0"></use></g></g><g><use xlink:href="#b2XGeL18T" opacity="1" fill="#a58b64" fill-opacity="1"></use><g><use xlink:href="#b2XGeL18T" opacity="1" fill-opacity="0" stroke="#000000" stroke-width="1" stroke-opacity="0"></use></g></g><g><use xlink:href="#aUvyOuDKN" opacity="1" fill="#000000" fill-opacity="0"></use><g><use xlink:href="#aUvyOuDKN" opacity="1" fill-opacity="0" stroke="#000000" stroke-width="2" stroke-opacity="0"></use></g></g><g><use xlink:href="#bbIUav6o3" opacity="1" fill="#000000" fill-opacity="0"></use><g><use xlink:href="#bbIUav6o3" opacity="1" fill-opacity="0" stroke="#000000" stroke-width="1" stroke-opacity="0"></use></g></g><g><use xlink:href="#cDM1WJqY8" opacity="1" fill="#000000" fill-opacity="0"></use><g><use xlink:href="#cDM1WJqY8" opacity="1" fill-opacity="0" stroke="#000000" stroke-width="1" stroke-opacity="1"></use></g></g><g><use xlink:href="#b4nI3k9Zc" opacity="1" fill="#a58b64" fill-opacity="1"></use><g><use xlink:href="#b4nI3k9Zc" opacity="1" fill-opacity="0" stroke="#000000" stroke-width="1" stroke-opacity="0"></use></g></g><g><use xlink:href="#cBkkpL0jz" opacity="1" fill="#000000" fill-opacity="0"></use><g><use xlink:href="#cBkkpL0jz" opacity="1" fill-opacity="0" stroke="#000000" stroke-width="1" stroke-opacity="1"></use></g></g><g><use xlink:href="#aurDbC7hk" opacity="1" fill="#a58b64" fill-opacity="1"></use><g><use xlink:href="#aurDbC7hk" opacity="1" fill-opacity="0" stroke="#000000" stroke-width="1" stroke-opacity="0"></use></g></g><g><use xlink:href="#a3cjKVwQCP" opacity="1" fill="#000000" fill-opacity="0"></use><g><use xlink:href="#a3cjKVwQCP" opacity="1" fill-opacity="0" stroke="#000000" stroke-width="1" stroke-opacity="1"></use></g></g><g><use xlink:href="#a153KLBdYm" opacity="1" fill="#fffbeb" fill-opacity="1"></use><g><use xlink:href="#a153KLBdYm" opacity="1" fill-opacity="0" stroke="#000000" stroke-width="1" stroke-opacity="1"></use></g></g></g></svg>