<?xml version="1.0" encoding="UTF-8" standalone="no"?>
<!DOCTYPE svg PUBLIC "-//W3C//DTD SVG 1.1//EN" "http://www.w3.org/Graphics/SVG/1.1/DTD/svg11.dtd">
<svg version="1.1" xmlns="http://www.w3.org/2000/svg" xmlns:xlink="http://www.w3.org/1999/xlink" preserveAspectRatio="xMidYMid meet" viewBox="67.4107199412381 185.65749076903646 80.22948611550252 243.82001569802256" width="76.23" height="239.82"><defs><path d="M144.64 233.17L144.64 385.57L92.09 385.57L92.09 233.17L144.64 233.17Z" id="a2pyzIqc3I"></path><path d="M144.64 233.17L144.64 385.57L92.09 385.57L92.09 233.17L144.64 233.17Z" id="bwyJPBEOA"></path><path d="M122.08 211.54L122.08 402.06L83.03 402.06L83.03 211.54L122.08 211.54Z" id="aqSdWmgbb"></path><path d="M122.08 211.54L122.08 402.06L83.03 402.06L83.03 211.54L122.08 211.54Z" id="kvFOCQ7Ac"></path><path d="M106.69 400.95L108.7 400.97L110.67 401L112.59 401.03L114.47 401.06L116.3 401.1L118.08 401.14L119.79 401.18L121.45 401.23L123.03 401.27L124.56 401.32L126 401.38L127.38 401.43L128.67 401.49L129.88 401.55L131 401.61L132.04 401.67L132.98 401.73L133.82 401.8L134.56 401.86L135.2 401.93L135.73 402L136.15 402.07L136.45 402.14L136.64 402.21L136.7 402.28L136.64 402.35L136.45 402.42L136.15 402.48L135.73 402.55L135.2 402.61L134.56 402.67L133.82 402.72L132.97 402.78L132.03 402.83L131 402.88L129.87 402.92L128.66 402.97L127.37 403.01L125.99 403.05L124.54 403.08L123.02 403.11L121.43 403.14L119.78 403.17L118.06 403.19L116.29 403.2L114.46 403.22L112.58 403.23L110.65 403.23L108.91 403.23L109.23 419.8L106.07 426.37L100.42 426.48L96.53 420.04L96.2 403.49L108.81 403.23L108.68 403.23L106.67 403.23L104.62 403.22L102.55 403.21L100.47 403.2L98.42 403.18L96.41 403.16L94.44 403.13L92.52 403.1L90.64 403.07L88.81 403.03L87.04 402.99L85.32 402.95L83.67 402.91L82.08 402.86L80.56 402.81L79.11 402.76L77.74 402.7L76.44 402.64L75.23 402.59L74.11 402.52L73.07 402.46L72.13 402.4L71.29 402.33L70.55 402.27L69.91 402.2L69.38 402.13L68.96 402.06L68.66 402L68.47 401.93L68.41 401.86L68.47 401.79L68.66 401.72L68.96 401.65L69.38 401.59L69.91 401.53L70.55 401.47L71.3 401.41L72.14 401.36L73.08 401.31L74.12 401.26L75.24 401.21L76.45 401.17L77.75 401.13L79.12 401.09L80.57 401.05L82.09 401.02L83.68 400.99L85.34 400.97L87.05 400.95L88.83 400.93L90.65 400.91L92.53 400.9L94.46 400.9L96.43 400.9L98.44 400.9L100.49 400.9L102.56 400.91L104.64 400.93L104.64 400.93L106.69 400.95Z" id="a39VlO3rvX"></path><path d="M118.09 206.5L119.8 206.61L121.46 206.73L123.05 206.87L124.57 207.01L126.01 207.16L127.39 207.32L128.68 207.48L129.89 207.66L131.01 207.84L132.05 208.03L132.98 208.22L133.83 208.42L134.57 208.62L135.21 208.83L135.74 209.05L136.15 209.27L136.45 209.49L136.64 209.71L136.7 209.94L136.64 210.17L136.45 210.39L136.15 210.61L135.73 210.83L135.19 211.03L134.56 211.24L133.81 211.43L132.97 211.62L132.02 211.81L130.99 211.98L129.86 212.15L128.65 212.31L127.36 212.46L125.98 212.6L124.53 212.73L123.01 212.86L121.42 212.97L119.76 213.07L118.05 213.17L116.27 213.25L114.44 213.32L112.56 213.37L110.64 213.42L108.67 213.45L106.66 213.47L104.61 213.48L102.54 213.47L100.46 213.45L98.41 213.42L96.4 213.38L94.43 213.32L92.51 213.25L90.63 213.17L88.8 213.08L87.03 212.97L85.31 212.86L83.66 212.74L82.07 212.6L80.55 212.46L79.1 212.31L77.73 212.15L76.43 211.98L75.22 211.81L74.1 211.63L73.07 211.44L72.13 211.25L71.28 211.05L70.54 210.84L69.9 210.63L69.38 210.42L68.96 210.2L68.66 209.98L68.47 209.76L68.41 209.53L68.47 209.3L68.66 209.08L68.96 208.86L69.38 208.64L69.92 208.43L70.56 208.23L71.3 208.04L72.14 207.85L73.09 207.66L74.12 207.49L75.25 207.32L76.46 207.16L77.76 207.01L79.13 206.87L80.58 206.74L82.1 206.61L83.69 206.5L85.35 206.4L87.07 206.3L88.84 206.22L90.67 206.15L92.55 206.09L94.48 206.05L96.2 206.02L96.2 193.17L99.49 186.66L105.15 186.66L108.91 193.17L108.91 206.1L110.68 206.15L112.61 206.22L114.49 206.3L116.31 206.39L116.31 206.39L118.09 206.5Z" id="ewk0Di5D8"></path><path d="M124.86 233.17L124.86 385.57L80.25 385.57L80.25 233.17L124.86 233.17Z" id="a38eFaQzhT"></path><mask id="maskcUi4m7Ym" x="78.25" y="231.17" width="48.62" height="156.4" maskUnits="userSpaceOnUse"><rect x="78.25" y="231.17" width="48.62" height="156.4" fill="white"></rect><use xlink:href="#a38eFaQzhT" opacity="1" fill="black"></use></mask><mask id="maskb4hWWoDvL9" x="78.25" y="231.17" width="48.62" height="156.4" maskUnits="userSpaceOnUse"><rect x="78.25" y="231.17" width="48.62" height="156.4" fill="white"></rect><use xlink:href="#a38eFaQzhT" opacity="1" fill="black"></use></mask><path d="" id="a1QZb3hmj"></path></defs><g><g><use xlink:href="#a2pyzIqc3I" opacity="1" fill="#f3e3c8" fill-opacity="1"></use><g><use xlink:href="#a2pyzIqc3I" opacity="1" fill-opacity="0" stroke="#000000" stroke-width="2" stroke-opacity="0"></use></g></g><g><use xlink:href="#bwyJPBEOA" opacity="1" fill="#000000" fill-opacity="0"></use></g><g><use xlink:href="#aqSdWmgbb" opacity="1" fill="#a58b64" fill-opacity="1"></use><g><use xlink:href="#aqSdWmgbb" opacity="1" fill-opacity="0" stroke="#000000" stroke-width="2" stroke-opacity="0"></use></g></g><g><use xlink:href="#kvFOCQ7Ac" opacity="1" fill="#000000" fill-opacity="0"></use><g><use xlink:href="#kvFOCQ7Ac" opacity="1" fill-opacity="0" stroke="#000000" stroke-width="1" stroke-opacity="1"></use></g></g><g><use xlink:href="#a39VlO3rvX" opacity="1" fill="#a58b64" fill-opacity="1"></use><g><use xlink:href="#a39VlO3rvX" opacity="1" fill-opacity="0" stroke="#000000" stroke-width="1" stroke-opacity="1"></use></g></g><g><use xlink:href="#ewk0Di5D8" opacity="1" fill="#a58b64" fill-opacity="1"></use><g><use xlink:href="#ewk0Di5D8" opacity="1" fill-opacity="0" stroke="#000000" stroke-width="1" stroke-opacity="1"></use></g></g><g><use xlink:href="#a38eFaQzhT" opacity="1" fill="#f3e3c8" fill-opacity="1"></use><g mask="url(#maskcUi4m7Ym)"><use xlink:href="#a38eFaQzhT" opacity="1" fill-opacity="0" stroke="#000000" stroke-width="2" stroke-opacity="1"></use></g><g mask="url(#maskb4hWWoDvL9)"><use xlink:href="#a38eFaQzhT" opacity="1" fill-opacity="0" stroke="#000000" stroke-width="2" stroke-opacity="1"></use></g></g><g><g><use xlink:href="#a1QZb3hmj" opacity="1" fill-opacity="0" stroke="#000000" stroke-width="1" stroke-opacity="1"></use></g></g></g></svg>