<?xml version="1.0" encoding="UTF-8" standalone="no"?>
<!DOCTYPE svg PUBLIC "-//W3C//DTD SVG 1.1//EN" "http://www.w3.org/Graphics/SVG/1.1/DTD/svg11.dtd">
<svg version="1.1" xmlns="http://www.w3.org/2000/svg" xmlns:xlink="http://www.w3.org/1999/xlink" preserveAspectRatio="xMidYMid meet" viewBox="-0.05339934052961581 3.9664246291854397 83.05339934052961 231.17732447843986" width="79.05" height="227.18"><defs><path d="M80 192.18L30.22 192.18L30.22 47.82L80 47.82L80 192.18Z" id="d2iiq3hrVw"></path><path d="M51.79 209.01L14.8 209.01L14.8 28.53L51.79 28.53L51.79 209.01Z" id="ec7wIjkMW"></path><path d="M51.79 209.01L14.8 209.01L14.8 28.53L51.79 28.53L51.79 209.01Z" id="asXmxttRj"></path><path d="M51.79 209.01L14.8 209.01L14.8 28.53L51.79 28.53L51.79 209.01Z" id="b1JLl2qvcg"></path><path d="M51.79 209.01L14.8 209.01L14.8 28.53L51.79 28.53L51.79 209.01Z" id="a3wKERJUBr"></path><path d="M39.11 207.98L40.98 208.01L42.8 208.04L44.58 208.06L46.31 208.1L48 208.14L49.62 208.18L51.19 208.22L52.69 208.26L54.14 208.31L55.5 208.37L56.81 208.41L58.03 208.47L59.18 208.53L60.24 208.58L61.22 208.64L62.11 208.7L62.91 208.76L63.61 208.82L64.22 208.89L64.72 208.95L65.12 209.02L65.4 209.09L65.58 209.15L65.64 209.22L65.58 209.29L65.4 209.35L65.12 209.41L64.72 209.48L64.22 209.53L63.61 209.59L62.91 209.64L62.1 209.69L61.21 209.74L60.24 209.79L59.17 209.83L58.02 209.87L56.8 209.91L55.49 209.95L54.12 209.98L52.68 210.01L51.17 210.03L49.61 210.06L47.98 210.08L46.3 210.09L44.57 210.11L42.79 210.12L40.96 210.12L39.31 210.12L39.61 225.82L36.62 232.04L31.27 232.14L27.58 226.04L27.27 210.37L39.22 210.12L39.09 210.12L37.19 210.12L35.25 210.11L33.29 210.1L31.32 210.09L29.37 210.07L27.47 210.05L25.6 210.02L23.79 210L22 209.97L20.27 209.93L18.59 209.89L16.97 209.85L15.4 209.82L13.9 209.77L12.46 209.72L11.08 209.67L9.78 209.62L8.55 209.56L7.41 209.51L6.35 209.45L5.36 209.39L4.47 209.33L3.67 209.27L2.97 209.21L2.37 209.14L1.87 209.08L1.47 209.01L1.18 208.95L1 208.89L0.95 208.82L1 208.76L1.18 208.69L1.47 208.62L1.87 208.57L2.37 208.51L2.97 208.45L3.68 208.4L4.48 208.35L5.37 208.3L6.36 208.25L7.42 208.21L8.56 208.17L9.79 208.13L11.09 208.09L12.47 208.05L13.91 208.03L15.41 208L16.98 207.98L18.6 207.96L20.29 207.94L22.01 207.92L23.8 207.91L25.62 207.91L27.49 207.91L29.39 207.91L31.34 207.91L33.3 207.92L35.27 207.94L35.27 207.94L37.21 207.96L39.11 207.98Z" id="a47GWam6FM"></path><path d="M39.11 207.98L40.98 208.01L42.8 208.04L44.58 208.06L46.31 208.1L48 208.14L49.62 208.18L51.19 208.22L52.69 208.26L54.14 208.31L55.5 208.37L56.81 208.41L58.03 208.47L59.18 208.53L60.24 208.58L61.22 208.64L62.11 208.7L62.91 208.76L63.61 208.82L64.22 208.89L64.72 208.95L65.12 209.02L65.4 209.09L65.58 209.15L65.64 209.22L65.58 209.29L65.4 209.35L65.12 209.41L64.72 209.48L64.22 209.53L63.61 209.59L62.91 209.64L62.1 209.69L61.21 209.74L60.24 209.79L59.17 209.83L58.02 209.87L56.8 209.91L55.49 209.95L54.12 209.98L52.68 210.01L51.17 210.03L49.61 210.06L47.98 210.08L46.3 210.09L44.57 210.11L42.79 210.12L40.96 210.12L39.31 210.12L39.61 225.82L36.62 232.04L31.27 232.14L27.58 226.04L27.27 210.37L39.22 210.12L39.09 210.12L37.19 210.12L35.25 210.11L33.29 210.1L31.32 210.09L29.37 210.07L27.47 210.05L25.6 210.02L23.79 210L22 209.97L20.27 209.93L18.59 209.89L16.97 209.85L15.4 209.82L13.9 209.77L12.46 209.72L11.08 209.67L9.78 209.62L8.55 209.56L7.41 209.51L6.35 209.45L5.36 209.39L4.47 209.33L3.67 209.27L2.97 209.21L2.37 209.14L1.87 209.08L1.47 209.01L1.18 208.95L1 208.89L0.95 208.82L1 208.76L1.18 208.69L1.47 208.62L1.87 208.57L2.37 208.51L2.97 208.45L3.68 208.4L4.48 208.35L5.37 208.3L6.36 208.25L7.42 208.21L8.56 208.17L9.79 208.13L11.09 208.09L12.47 208.05L13.91 208.03L15.41 208L16.98 207.98L18.6 207.96L20.29 207.94L22.01 207.92L23.8 207.91L25.62 207.91L27.49 207.91L29.39 207.91L31.34 207.91L33.3 207.92L35.27 207.94L35.27 207.94L37.21 207.96L39.11 207.98Z" id="bhXhTgg0F"></path><path d="M49.63 23.86L51.2 23.98L52.71 24.11L54.15 24.24L55.51 24.39L56.82 24.54L58.04 24.69L59.19 24.86L60.25 25.03L61.23 25.21L62.11 25.39L62.92 25.58L63.62 25.77L64.23 25.97L64.73 26.18L65.12 26.38L65.4 26.59L65.58 26.8L65.64 27.02L65.58 27.24L65.4 27.45L65.12 27.65L64.72 27.86L64.21 28.05L63.61 28.25L62.9 28.43L62.1 28.61L61.2 28.79L60.23 28.95L59.16 29.11L58.01 29.26L56.79 29.41L55.48 29.54L54.11 29.66L52.67 29.79L51.16 29.89L49.59 29.98L47.97 30.08L46.28 30.15L44.55 30.22L42.77 30.27L40.95 30.32L39.08 30.34L37.18 30.36L35.24 30.37L33.28 30.36L31.31 30.34L29.37 30.32L27.46 30.28L25.59 30.22L23.78 30.15L22 30.08L20.26 29.99L18.59 29.89L16.96 29.79L15.39 29.67L13.89 29.54L12.45 29.41L11.07 29.26L9.78 29.11L8.54 28.95L7.4 28.79L6.34 28.62L5.36 28.44L4.47 28.26L3.67 28.07L2.96 27.87L2.36 27.67L1.87 27.47L1.47 27.27L1.18 27.06L1 26.85L0.95 26.63L1 26.41L1.18 26.2L1.47 26L1.87 25.79L2.38 25.59L2.98 25.4L3.68 25.22L4.48 25.04L5.38 24.86L6.36 24.7L7.43 24.54L8.57 24.39L9.8 24.24L11.1 24.11L12.48 23.99L13.91 23.86L15.42 23.76L16.99 23.67L18.62 23.57L20.3 23.5L22.03 23.43L23.81 23.37L25.64 23.33L27.27 23.31L27.27 11.13L30.39 4.97L35.75 4.97L39.31 11.13L39.31 23.38L40.99 23.43L42.82 23.5L44.6 23.57L46.32 23.66L46.32 23.66L48.01 23.76L49.63 23.86Z" id="a3hMDy5aBB"></path><path d="M49.63 23.86L51.2 23.98L52.71 24.11L54.15 24.24L55.51 24.39L56.82 24.54L58.04 24.69L59.19 24.86L60.25 25.03L61.23 25.21L62.11 25.39L62.92 25.58L63.62 25.77L64.23 25.97L64.73 26.18L65.12 26.38L65.4 26.59L65.58 26.8L65.64 27.02L65.58 27.24L65.4 27.45L65.12 27.65L64.72 27.86L64.21 28.05L63.61 28.25L62.9 28.43L62.1 28.61L61.2 28.79L60.23 28.95L59.16 29.11L58.01 29.26L56.79 29.41L55.48 29.54L54.11 29.66L52.67 29.79L51.16 29.89L49.59 29.98L47.97 30.08L46.28 30.15L44.55 30.22L42.77 30.27L40.95 30.32L39.08 30.34L37.18 30.36L35.24 30.37L33.28 30.36L31.31 30.34L29.37 30.32L27.46 30.28L25.59 30.22L23.78 30.15L22 30.08L20.26 29.99L18.59 29.89L16.96 29.79L15.39 29.67L13.89 29.54L12.45 29.41L11.07 29.26L9.78 29.11L8.54 28.95L7.4 28.79L6.34 28.62L5.36 28.44L4.47 28.26L3.67 28.07L2.96 27.87L2.36 27.67L1.87 27.47L1.47 27.27L1.18 27.06L1 26.85L0.95 26.63L1 26.41L1.18 26.2L1.47 26L1.87 25.79L2.38 25.59L2.98 25.4L3.68 25.22L4.48 25.04L5.38 24.86L6.36 24.7L7.43 24.54L8.57 24.39L9.8 24.24L11.1 24.11L12.48 23.99L13.91 23.86L15.42 23.76L16.99 23.67L18.62 23.57L20.3 23.5L22.03 23.43L23.81 23.37L25.64 23.33L27.27 23.31L27.27 11.13L30.39 4.97L35.75 4.97L39.31 11.13L39.31 23.38L40.99 23.43L42.82 23.5L44.6 23.57L46.32 23.66L46.32 23.66L48.01 23.76L49.63 23.86Z" id="hkStj6GzV"></path><path d="M54.42 193.39L12.16 193.39L12.16 49.02L54.42 49.02L54.42 193.39Z" id="a7CyMPXdw"></path></defs><g><g><use xlink:href="#d2iiq3hrVw" opacity="1" fill="#fffbeb" fill-opacity="1"></use><g><use xlink:href="#d2iiq3hrVw" opacity="1" fill-opacity="0" stroke="#000000" stroke-width="1" stroke-opacity="0"></use></g></g><g><use xlink:href="#ec7wIjkMW" opacity="1" fill="#a58b64" fill-opacity="1"></use><g><use xlink:href="#ec7wIjkMW" opacity="1" fill-opacity="0" stroke="#000000" stroke-width="1" stroke-opacity="0"></use></g></g><g><use xlink:href="#asXmxttRj" opacity="1" fill="#000000" fill-opacity="0"></use><g><use xlink:href="#asXmxttRj" opacity="1" fill-opacity="0" stroke="#000000" stroke-width="2" stroke-opacity="0"></use></g></g><g><use xlink:href="#b1JLl2qvcg" opacity="1" fill="#000000" fill-opacity="0"></use><g><use xlink:href="#b1JLl2qvcg" opacity="1" fill-opacity="0" stroke="#000000" stroke-width="1" stroke-opacity="0"></use></g></g><g><use xlink:href="#a3wKERJUBr" opacity="1" fill="#000000" fill-opacity="0"></use><g><use xlink:href="#a3wKERJUBr" opacity="1" fill-opacity="0" stroke="#000000" stroke-width="1" stroke-opacity="1"></use></g></g><g><use xlink:href="#a47GWam6FM" opacity="1" fill="#a58b64" fill-opacity="1"></use><g><use xlink:href="#a47GWam6FM" opacity="1" fill-opacity="0" stroke="#000000" stroke-width="1" stroke-opacity="0"></use></g></g><g><use xlink:href="#bhXhTgg0F" opacity="1" fill="#000000" fill-opacity="0"></use><g><use xlink:href="#bhXhTgg0F" opacity="1" fill-opacity="0" stroke="#000000" stroke-width="1" stroke-opacity="1"></use></g></g><g><use xlink:href="#a3hMDy5aBB" opacity="1" fill="#a58b64" fill-opacity="1"></use><g><use xlink:href="#a3hMDy5aBB" opacity="1" fill-opacity="0" stroke="#000000" stroke-width="1" stroke-opacity="0"></use></g></g><g><use xlink:href="#hkStj6GzV" opacity="1" fill="#000000" fill-opacity="0"></use><g><use xlink:href="#hkStj6GzV" opacity="1" fill-opacity="0" stroke="#000000" stroke-width="1" stroke-opacity="1"></use></g></g><g><use xlink:href="#a7CyMPXdw" opacity="1" fill="#fffbeb" fill-opacity="1"></use><g><use xlink:href="#a7CyMPXdw" opacity="1" fill-opacity="0" stroke="#000000" stroke-width="1" stroke-opacity="1"></use></g></g></g></svg>