<?xml version="1.0" encoding="UTF-8" standalone="no"?>
<!DOCTYPE svg PUBLIC "-//W3C//DTD SVG 1.1//EN" "http://www.w3.org/Graphics/SVG/1.1/DTD/svg11.dtd">
<svg version="1.1" xmlns="http://www.w3.org/2000/svg" xmlns:xlink="http://www.w3.org/1999/xlink" preserveAspectRatio="xMidYMid meet" viewBox="67.41071994123809 185.65749076903646 80.22948611550254 243.82001569802256" width="76.23" height="239.82"><defs><path d="M68.41 233.17L68.41 385.57L120.96 385.57L120.96 233.17L68.41 233.17Z" id="h1ehvKALNu"></path><path d="M90.97 211.54L90.97 402.06L130.02 402.06L130.02 211.54L90.97 211.54Z" id="c4arHqEZ5"></path><path d="M68.41 233.17L68.41 385.57L120.96 385.57L120.96 233.17L68.41 233.17Z" id="b1OddFgipM"></path><path d="M90.97 211.54L90.97 402.06L130.02 402.06L130.02 211.54L90.97 211.54Z" id="bopoMngGX"></path><path d="M126 400.95L127.72 400.97L129.37 400.99L130.96 401.02L132.48 401.05L133.93 401.09L135.3 401.13L136.6 401.17L137.81 401.21L138.93 401.26L139.97 401.31L140.91 401.36L141.75 401.41L142.5 401.47L143.14 401.53L143.67 401.59L144.09 401.65L144.39 401.72L144.58 401.79L144.64 401.86L144.58 401.93L144.39 402L144.09 402.06L143.67 402.13L143.14 402.2L142.5 402.27L141.76 402.33L140.92 402.4L139.98 402.46L138.94 402.52L137.82 402.59L136.61 402.64L135.31 402.7L133.94 402.76L132.49 402.81L130.97 402.86L129.38 402.91L127.73 402.95L126.01 402.99L124.24 403.03L122.41 403.07L120.53 403.1L118.61 403.13L116.64 403.16L114.63 403.18L112.58 403.2L110.51 403.21L108.43 403.22L106.38 403.23L104.37 403.23L104.24 403.23L116.85 403.49L116.52 420.04L112.63 426.48L106.98 426.37L103.82 419.8L104.14 403.23L102.4 403.23L100.47 403.23L98.59 403.22L96.76 403.2L94.99 403.19L93.27 403.17L91.62 403.14L90.03 403.11L88.51 403.08L87.06 403.05L85.68 403.01L84.39 402.97L83.18 402.92L82.05 402.88L81.02 402.83L80.08 402.78L79.23 402.72L78.49 402.67L77.85 402.61L77.32 402.55L76.9 402.48L76.6 402.42L76.41 402.35L76.35 402.28L76.41 402.21L76.6 402.14L76.9 402.07L77.32 402L77.85 401.93L78.49 401.86L79.23 401.8L80.07 401.73L81.01 401.67L82.05 401.61L83.17 401.55L84.38 401.49L85.67 401.43L87.05 401.38L88.5 401.32L90.02 401.27L91.61 401.23L93.26 401.18L94.98 401.14L96.75 401.1L98.58 401.06L100.46 401.03L102.38 401L104.35 400.97L106.36 400.95L108.41 400.93L110.49 400.91L112.57 400.9L114.61 400.9L116.62 400.9L118.59 400.9L120.52 400.9L122.4 400.91L124.23 400.93L124.23 400.93L126 400.95Z" id="a327RKGg5"></path><path d="M125.98 206.3L127.7 206.4L129.36 206.5L130.95 206.61L132.47 206.74L133.92 206.87L135.3 207.01L136.59 207.16L137.8 207.32L138.93 207.49L139.96 207.66L140.91 207.85L141.75 208.04L142.5 208.23L143.14 208.43L143.67 208.64L144.09 208.86L144.39 209.08L144.58 209.3L144.64 209.53L144.58 209.76L144.4 209.98L144.09 210.2L143.68 210.42L143.15 210.63L142.51 210.84L141.77 211.05L140.93 211.25L139.99 211.44L138.95 211.63L137.83 211.81L136.62 211.98L135.33 212.15L133.95 212.31L132.5 212.46L130.98 212.6L129.4 212.74L127.74 212.86L126.03 212.97L124.25 213.08L122.42 213.17L120.54 213.25L118.62 213.32L116.65 213.38L114.64 213.42L112.59 213.45L110.51 213.47L108.44 213.48L106.39 213.47L104.38 213.45L102.41 213.42L100.49 213.37L98.61 213.32L96.78 213.25L95 213.17L93.29 213.07L91.63 212.97L90.04 212.86L88.52 212.73L87.07 212.6L85.69 212.46L84.4 212.31L83.19 212.15L82.06 211.98L81.03 211.81L80.08 211.62L79.24 211.43L78.5 211.24L77.86 211.03L77.32 210.83L76.9 210.61L76.6 210.39L76.41 210.17L76.35 209.94L76.41 209.71L76.6 209.49L76.9 209.27L77.32 209.05L77.85 208.83L78.48 208.62L79.22 208.42L80.07 208.22L81.01 208.03L82.04 207.84L83.16 207.66L84.37 207.48L85.66 207.32L87.04 207.16L88.49 207.01L90.01 206.87L91.59 206.73L93.25 206.61L94.96 206.5L96.74 206.39L98.56 206.3L100.44 206.22L102.37 206.15L104.14 206.1L104.14 193.17L107.91 186.66L113.56 186.66L116.85 193.17L116.85 206.02L118.57 206.05L120.5 206.09L122.38 206.15L124.21 206.22L124.21 206.22L125.98 206.3Z" id="a9yASiJlF"></path><path d="M88.19 233.17L88.19 385.57L132.8 385.57L132.8 233.17L88.19 233.17Z" id="d15shiBZ1r"></path><mask id="maskd1nLi8utHp" x="86.19" y="231.17" width="48.62" height="156.4" maskUnits="userSpaceOnUse"><rect x="86.19" y="231.17" width="48.62" height="156.4" fill="white"></rect><use xlink:href="#d15shiBZ1r" opacity="1" fill="black"></use></mask><mask id="maskg1oeIypPOZ" x="86.19" y="231.17" width="48.62" height="156.4" maskUnits="userSpaceOnUse"><rect x="86.19" y="231.17" width="48.62" height="156.4" fill="white"></rect><use xlink:href="#d15shiBZ1r" opacity="1" fill="black"></use></mask><path d="" id="b2zT1TUXh2"></path></defs><g><g><use xlink:href="#h1ehvKALNu" opacity="1" fill="#f3e3c8" fill-opacity="1"></use><g><use xlink:href="#h1ehvKALNu" opacity="1" fill-opacity="0" stroke="#000000" stroke-width="2" stroke-opacity="0"></use></g></g><g><use xlink:href="#c4arHqEZ5" opacity="1" fill="#a58b64" fill-opacity="1"></use><g><use xlink:href="#c4arHqEZ5" opacity="1" fill-opacity="0" stroke="#000000" stroke-width="2" stroke-opacity="0"></use></g></g><g><use xlink:href="#b1OddFgipM" opacity="1" fill="#000000" fill-opacity="0"></use></g><g><use xlink:href="#bopoMngGX" opacity="1" fill="#000000" fill-opacity="0"></use><g><use xlink:href="#bopoMngGX" opacity="1" fill-opacity="0" stroke="#000000" stroke-width="1" stroke-opacity="1"></use></g></g><g><use xlink:href="#a327RKGg5" opacity="1" fill="#a58b64" fill-opacity="1"></use><g><use xlink:href="#a327RKGg5" opacity="1" fill-opacity="0" stroke="#000000" stroke-width="1" stroke-opacity="1"></use></g></g><g><use xlink:href="#a9yASiJlF" opacity="1" fill="#a58b64" fill-opacity="1"></use><g><use xlink:href="#a9yASiJlF" opacity="1" fill-opacity="0" stroke="#000000" stroke-width="1" stroke-opacity="1"></use></g></g><g><use xlink:href="#d15shiBZ1r" opacity="1" fill="#f3e3c8" fill-opacity="1"></use><g mask="url(#maskd1nLi8utHp)"><use xlink:href="#d15shiBZ1r" opacity="1" fill-opacity="0" stroke="#000000" stroke-width="2" stroke-opacity="1"></use></g><g mask="url(#maskg1oeIypPOZ)"><use xlink:href="#d15shiBZ1r" opacity="1" fill-opacity="0" stroke="#000000" stroke-width="2" stroke-opacity="1"></use></g></g><g><g><use xlink:href="#b2zT1TUXh2" opacity="1" fill-opacity="0" stroke="#000000" stroke-width="1" stroke-opacity="1"></use></g></g></g></svg>