<?xml version="1.0" encoding="UTF-8" standalone="no"?>
<!DOCTYPE svg PUBLIC "-//W3C//DTD SVG 1.1//EN" "http://www.w3.org/Graphics/SVG/1.1/DTD/svg11.dtd">
<svg version="1.1" xmlns="http://www.w3.org/2000/svg" xmlns:xlink="http://www.w3.org/1999/xlink" preserveAspectRatio="xMidYMid meet" viewBox="0 0 640 640" width="640" height="640"><defs><path d="M256.82 249.59L298.27 249.59L298.27 451.86L256.82 451.86L256.82 249.59Z" id="e5rfWMenK"></path><path d="M313.8 248.35C313.81 246.15 297.58 244.27 277.57 244.15C257.56 244.03 241.31 245.71 241.3 247.9C241.28 250.09 257.51 251.97 277.52 252.1C297.53 252.22 313.78 250.54 313.8 248.35Z" id="c3fYrFajIL"></path><path d="" id="b6SKP9gs8"></path><path d="M284.3 248.12L284.3 230.53L280.3 223.62L274.3 223.62L270.8 230.53L270.8 248.12L284.3 248.12Z" id="ad9ftLzVZ"></path><path d="M313.8 452.09C313.8 451.41 297.56 450.77 277.55 450.64C257.55 450.52 241.3 450.97 241.3 451.64C241.29 452.31 257.53 452.96 277.54 453.08C297.54 453.21 313.79 452.76 313.8 452.09Z" id="cd3mBogFR"></path><path d="M270.8 453.37L271.14 470.96L275.27 477.79L281.27 477.67L284.64 470.69L284.29 453.1L270.8 453.37Z" id="aYztYu4hy"></path></defs><g><g><g><g><filter id="shadow416794" x="247.82" y="240.59" width="60.45" height="221.27" filterUnits="userSpaceOnUse" primitiveUnits="userSpaceOnUse"><feFlood></feFlood><feComposite in2="SourceAlpha" operator="in"></feComposite><feGaussianBlur stdDeviation="1"></feGaussianBlur><feOffset dx="1" dy="1" result="afterOffset"></feOffset><feFlood flood-color="#000000" flood-opacity="0.5"></feFlood><feComposite in2="afterOffset" operator="in"></feComposite><feMorphology operator="dilate" radius="1"></feMorphology><feComposite in2="SourceAlpha" operator="out"></feComposite></filter><path d="M256.82 249.59L298.27 249.59L298.27 451.86L256.82 451.86L256.82 249.59Z" id="g1axrhXtzf" fill="white" fill-opacity="1" filter="url(#shadow416794)"></path></g><use xlink:href="#e5rfWMenK" opacity="1" fill="#a58b64" fill-opacity="1"></use><g><use xlink:href="#e5rfWMenK" opacity="1" fill-opacity="0" stroke="#63625f" stroke-width="1" stroke-opacity="1"></use></g></g><g><g><filter id="shadow13548828" x="232.3" y="235.14" width="91.5" height="26.96" filterUnits="userSpaceOnUse" primitiveUnits="userSpaceOnUse"><feFlood></feFlood><feComposite in2="SourceAlpha" operator="in"></feComposite><feGaussianBlur stdDeviation="1"></feGaussianBlur><feOffset dx="1" dy="1" result="afterOffset"></feOffset><feFlood flood-color="#000000" flood-opacity="0.5"></feFlood><feComposite in2="afterOffset" operator="in"></feComposite><feMorphology operator="dilate" radius="1"></feMorphology><feComposite in2="SourceAlpha" operator="out"></feComposite></filter><path d="M313.8 248.35C313.81 246.15 297.58 244.27 277.57 244.15C257.56 244.03 241.31 245.71 241.3 247.9C241.28 250.09 257.51 251.97 277.52 252.1C297.53 252.22 313.78 250.54 313.8 248.35Z" id="b1KH94Z0Nx" fill="white" fill-opacity="1" filter="url(#shadow13548828)"></path></g><use xlink:href="#c3fYrFajIL" opacity="1" fill="#a58b64" fill-opacity="1"></use><g><use xlink:href="#c3fYrFajIL" opacity="1" fill-opacity="0" stroke="#63625f" stroke-width="1" stroke-opacity="1"></use></g></g><g><g><use xlink:href="#b6SKP9gs8" opacity="1" fill-opacity="0" stroke="#000000" stroke-width="1" stroke-opacity="1"></use></g></g><g><use xlink:href="#ad9ftLzVZ" opacity="1" fill="#a58b64" fill-opacity="1"></use><g><use xlink:href="#ad9ftLzVZ" opacity="1" fill-opacity="0" stroke="#63625f" stroke-width="1" stroke-opacity="1"></use></g></g><g><g><filter id="shadow1352581" x="232.3" y="441.62" width="91.5" height="21.48" filterUnits="userSpaceOnUse" primitiveUnits="userSpaceOnUse"><feFlood></feFlood><feComposite in2="SourceAlpha" operator="in"></feComposite><feGaussianBlur stdDeviation="1"></feGaussianBlur><feOffset dx="1" dy="1" result="afterOffset"></feOffset><feFlood flood-color="#000000" flood-opacity="0.5"></feFlood><feComposite in2="afterOffset" operator="in"></feComposite><feMorphology operator="dilate" radius="1"></feMorphology><feComposite in2="SourceAlpha" operator="out"></feComposite></filter><path d="M313.8 452.09C313.8 451.41 297.56 450.77 277.55 450.64C257.55 450.52 241.3 450.97 241.3 451.64C241.29 452.31 257.53 452.96 277.54 453.08C297.54 453.21 313.79 452.76 313.8 452.09Z" id="a203IiAEtk" fill="white" fill-opacity="1" filter="url(#shadow1352581)"></path></g><use xlink:href="#cd3mBogFR" opacity="1" fill="#a58b64" fill-opacity="1"></use><g><use xlink:href="#cd3mBogFR" opacity="1" fill-opacity="0" stroke="#63625f" stroke-width="1" stroke-opacity="1"></use></g></g><g><use xlink:href="#aYztYu4hy" opacity="1" fill="#a58b64" fill-opacity="1"></use><g><use xlink:href="#aYztYu4hy" opacity="1" fill-opacity="0" stroke="#63625f" stroke-width="1" stroke-opacity="1"></use></g></g></g></g></svg>